<svg width="128" height="24" viewBox="0 0 128 24" fill="none" xmlns="http://www.w3.org/2000/svg">
<path fill-rule="evenodd" clip-rule="evenodd" d="M6.27027 3.18319V19.7358C6.27027 21.4935 4.86636 22.9189 3.13514 22.9189C1.40391 22.9189 0 21.4935 0 19.7358V3.18319C0 1.42543 1.40391 0 3.13514 0C4.86636 0 6.27027 1.42543 6.27027 3.18319Z" fill="#2E3A4B"/>
<path fill-rule="evenodd" clip-rule="evenodd" d="M14.4865 12.7707V16.6347C14.4865 18.3143 13.0828 19.6757 11.351 19.6757C9.61988 19.6757 8.21619 18.3143 8.21619 16.6347V12.7707C8.21619 11.0911 9.61988 9.72974 11.351 9.72974C13.0828 9.72974 14.4865 11.0911 14.4865 12.7707Z" fill="#2E3A4B"/>
<path fill-rule="evenodd" clip-rule="evenodd" d="M16.4324 3.18382V19.7363C16.4324 21.4942 17.8363 22.9189 19.5676 22.9189C21.2988 22.9189 22.7027 21.4942 22.7027 19.7363V3.18382C22.7027 1.42606 21.2988 0 19.5676 0C17.8363 0 16.4324 1.42606 16.4324 3.18382Z" fill="url(#paint0_linear_4214_53101)"/>
<path fill-rule="evenodd" clip-rule="evenodd" d="M39.7858 3.97553L34.5242 12.2219L29.2431 3.97464C29.1238 3.78842 28.918 3.67578 28.6968 3.67578H27.2433C26.885 3.67578 26.5946 3.96619 26.5946 4.32443V18.5563C26.5946 18.9146 26.885 19.205 27.2433 19.205H29.3683C29.7266 19.205 30.017 18.9146 30.017 18.5563V10.5891L33.1824 15.5613C33.3015 15.7483 33.5078 15.8616 33.7296 15.8616H35.3002C35.5214 15.8616 35.7273 15.7489 35.8465 15.5626L39.0117 10.6183V18.5563C39.0117 18.9146 39.3022 19.205 39.6604 19.205H41.8074C42.1657 19.205 42.4561 18.9146 42.4561 18.5563V4.32443C42.4561 3.96619 42.1657 3.67578 41.8074 3.67578H40.3326C40.1111 3.67578 39.9049 3.7888 39.7858 3.97553ZM52.3701 12.6546L47.7141 12.6677C47.7594 12.5135 47.8148 12.3683 47.8804 12.2322C48.0925 11.7923 48.3923 11.4514 48.7799 11.2094C49.1675 10.9675 49.6245 10.8465 50.1511 10.8465C50.6483 10.8465 51.0688 10.9528 51.4125 11.1654C51.7562 11.3781 52.0158 11.686 52.1913 12.0893C52.2652 12.2589 52.3247 12.4473 52.3701 12.6546ZM47.9024 15.4546C47.827 15.3059 47.7641 15.147 47.7138 14.978L54.8066 14.961C55.1267 14.9603 55.3984 14.7261 55.4464 14.4097C55.4578 14.3347 55.466 14.2724 55.4711 14.2229C55.4931 14.0102 55.504 13.8086 55.504 13.618C55.504 12.5768 55.2737 11.653 54.813 10.8465C54.3523 10.04 53.7197 9.40941 52.9153 8.95483C52.1109 8.50024 51.1822 8.27295 50.1291 8.27295C49.0468 8.27295 48.0742 8.5149 47.2113 8.99882C46.3484 9.48273 45.6647 10.1463 45.1601 10.9895C44.6555 11.8326 44.4032 12.7895 44.4032 13.8599C44.4032 14.9304 44.6591 15.8909 45.171 16.7414C45.6829 17.5919 46.3886 18.2555 47.2881 18.7321C48.1876 19.2086 49.215 19.4469 50.3704 19.4469C51.2626 19.4469 52.0816 19.293 52.8275 18.985C53.2071 18.8283 53.6675 18.5222 54.2088 18.0666C54.2228 18.0548 54.2363 18.0425 54.2492 18.0296C54.5029 17.7766 54.5034 17.3659 54.2504 17.1122L53.3207 16.1801C53.0864 15.9451 52.7125 15.9249 52.4542 16.1333C52.1882 16.3479 51.9616 16.4956 51.7745 16.5764C51.3504 16.7597 50.875 16.8514 50.3485 16.8514C49.7781 16.8514 49.2845 16.7304 48.8677 16.4885C48.4508 16.2465 48.1291 15.9019 47.9024 15.4546ZM56.8681 11.3744H58.6326V18.5563C58.6326 18.9146 58.9231 19.205 59.2813 19.205H61.3406C61.6988 19.205 61.9892 18.9146 61.9892 18.5563V11.3744H63.7538C64.112 11.3744 64.4025 11.084 64.4025 10.7257V9.16355C64.4025 8.80532 64.112 8.51491 63.7538 8.51491H61.9892V4.74235C61.9892 4.38412 61.6988 4.09371 61.3406 4.09371H59.2813C58.9231 4.09371 58.6326 4.38412 58.6326 4.74235V8.51491H56.8681C56.5098 8.51491 56.2194 8.80532 56.2194 9.16355V10.7257C56.2194 11.084 56.5098 11.3744 56.8681 11.3744ZM73.1489 9.16355V9.39668C72.8616 9.12319 72.5289 8.89525 72.1507 8.71287C71.573 8.43425 70.9258 8.29495 70.2091 8.29495C69.2292 8.29495 68.3554 8.5369 67.5875 9.02081C66.8197 9.50473 66.2127 10.1646 65.7666 11.0005C65.3205 11.8363 65.0975 12.7895 65.0975 13.8599C65.0975 14.9304 65.3205 15.8836 65.7666 16.7194C66.2127 17.5553 66.8197 18.2151 67.5875 18.6991C68.3554 19.183 69.2292 19.4249 70.2091 19.4249C70.9258 19.4249 71.5766 19.2856 72.1617 19.007C72.5375 18.828 72.8666 18.6051 73.1489 18.3383V18.5563C73.1489 18.9146 73.4393 19.205 73.7975 19.205H75.791C76.1493 19.205 76.4397 18.9146 76.4397 18.5563V9.16355C76.4397 8.80532 76.1493 8.51491 75.791 8.51491H73.7975C73.4393 8.51491 73.1489 8.80532 73.1489 9.16355ZM72.6224 15.6746C72.1836 16.1512 71.6059 16.3895 70.8892 16.3895C70.4358 16.3895 70.0263 16.2795 69.6607 16.0595C69.295 15.8396 69.0098 15.539 68.8051 15.1577C68.6003 14.7764 68.4979 14.3439 68.4979 13.8599C68.4979 13.3614 68.604 12.9214 68.8161 12.5402C69.0281 12.1589 69.3133 11.862 69.6717 11.6493C70.03 11.4367 70.4432 11.3304 70.9112 11.3304C71.3792 11.3304 71.7924 11.4367 72.1507 11.6493C72.509 11.862 72.7869 12.1589 72.9844 12.5402C73.1818 12.9214 73.2805 13.3614 73.2805 13.8599C73.2805 14.5931 73.0611 15.198 72.6224 15.6746ZM94.5658 18.5563V13.1121C94.5658 12.7455 94.6463 12.4192 94.8071 12.1333C94.968 11.8473 95.1874 11.6273 95.4653 11.4734C95.7432 11.3194 96.0649 11.2424 96.4306 11.2424C96.9571 11.2424 97.3922 11.4147 97.7359 11.7593C98.0796 12.1039 98.2515 12.5548 98.2515 13.1121V18.5563C98.2515 18.9146 98.5419 19.205 98.9001 19.205H100.959C101.318 19.205 101.608 18.9146 101.608 18.5563V12.3642C101.608 11.631 101.433 10.9565 101.082 10.3406C100.731 9.72468 100.252 9.22978 99.6446 8.85584C99.0376 8.48191 98.3392 8.29495 97.5494 8.29495C96.7304 8.29495 95.9955 8.46725 95.3446 8.81185C95.0572 8.96403 94.7976 9.14409 94.5658 9.35203V9.16355C94.5658 8.80532 94.2754 8.51491 93.9172 8.51491H91.8579C91.4996 8.51491 91.2092 8.80532 91.2092 9.16355V18.5563C91.2092 18.9146 91.4996 19.205 91.8579 19.205H93.9172C94.2754 19.205 94.5658 18.9146 94.5658 18.5563ZM110.611 18.4571C110.894 18.3226 111.15 18.1634 111.379 17.9794V18.6551C111.379 19.4029 111.142 19.9822 110.666 20.3928C110.191 20.8034 109.536 21.0086 108.703 21.0086C108.03 21.0086 107.456 20.8913 106.981 20.6567C106.757 20.5462 106.477 20.3417 106.143 20.0434C105.886 19.8143 105.495 19.8257 105.252 20.0694L104.086 21.2388L104.082 21.2421C103.831 21.4976 103.835 21.9083 104.09 22.1594C104.707 22.7663 105.254 23.1783 105.73 23.3952C106.615 23.7985 107.642 24.0001 108.812 24.0001C109.953 24.0001 110.97 23.7728 111.862 23.3182C112.754 22.8636 113.456 22.2331 113.968 21.4266C114.48 20.62 114.736 19.6669 114.736 18.5671V9.16355C114.736 8.80532 114.445 8.51491 114.087 8.51491H112.094C111.735 8.51491 111.445 8.80532 111.445 9.16355V9.22301C111.201 9.01869 110.927 8.84498 110.622 8.70187C110.045 8.43059 109.39 8.29495 108.659 8.29495C107.679 8.29495 106.809 8.5259 106.048 8.98782C105.288 9.44974 104.688 10.0803 104.249 10.8795C103.811 11.6787 103.591 12.5768 103.591 13.574C103.591 14.5565 103.811 15.451 104.249 16.2575C104.688 17.064 105.288 17.7019 106.048 18.1712C106.809 18.6404 107.679 18.875 108.659 18.875C109.376 18.875 110.026 18.7357 110.611 18.4571ZM110.513 15.5756C110.169 15.7809 109.763 15.8836 109.295 15.8836C108.827 15.8836 108.421 15.7809 108.078 15.5756C107.734 15.3703 107.467 15.0881 107.277 14.7288C107.087 14.3695 106.992 13.9846 106.992 13.574C106.992 13.1341 107.087 12.7381 107.277 12.3862C107.467 12.0343 107.737 11.7557 108.089 11.5504C108.44 11.3451 108.842 11.2424 109.295 11.2424C109.763 11.2424 110.169 11.3451 110.513 11.5504C110.856 11.7557 111.12 12.0343 111.302 12.3862C111.485 12.7381 111.577 13.1341 111.577 13.574C111.577 14.0139 111.485 14.4062 111.302 14.7508C111.12 15.0954 110.856 15.3703 110.513 15.5756ZM124.709 9.16355V9.39668C124.422 9.12319 124.089 8.89525 123.711 8.71287C123.133 8.43425 122.486 8.29495 121.77 8.29495C120.79 8.29495 119.916 8.5369 119.148 9.02081C118.38 9.50473 117.773 10.1646 117.327 11.0005C116.881 11.8363 116.658 12.7895 116.658 13.8599C116.658 14.9304 116.881 15.8836 117.327 16.7194C117.773 17.5553 118.38 18.2151 119.148 18.6991C119.916 19.183 120.79 19.4249 121.77 19.4249C122.486 19.4249 123.137 19.2856 123.722 19.007C124.098 18.828 124.427 18.6051 124.709 18.3383V18.5563C124.709 18.9146 125 19.205 125.358 19.205H127.351C127.71 19.205 128 18.9146 128 18.5563V9.16355C128 8.80532 127.71 8.51491 127.351 8.51491H125.358C125 8.51491 124.709 8.80532 124.709 9.16355ZM124.183 15.6746C123.744 16.1512 123.166 16.3895 122.45 16.3895C121.996 16.3895 121.587 16.2795 121.221 16.0595C120.855 15.8396 120.57 15.539 120.365 15.1577C120.161 14.7764 120.058 14.3439 120.058 13.8599C120.058 13.3614 120.164 12.9214 120.376 12.5402C120.588 12.1589 120.874 11.862 121.232 11.6493C121.59 11.4367 122.004 11.3304 122.472 11.3304C122.94 11.3304 123.353 11.4367 123.711 11.6493C124.069 11.862 124.347 12.1589 124.545 12.5402C124.742 12.9214 124.841 13.3614 124.841 13.8599C124.841 14.5931 124.621 15.198 124.183 15.6746ZM86.2372 12.5978L81.5812 12.611C81.6265 12.4567 81.6819 12.3116 81.7475 12.1755C81.9596 11.7356 82.2594 11.3946 82.647 11.1527C83.0346 10.9107 83.4916 10.7898 84.0181 10.7898C84.5154 10.7898 84.9359 10.8961 85.2796 11.1087C85.6233 11.3213 85.8829 11.6293 86.0584 12.0325C86.1322 12.2022 86.1918 12.3906 86.2372 12.5978ZM81.7694 15.3979C81.6941 15.2492 81.6312 15.0903 81.5809 14.9213L88.6737 14.9043C88.9938 14.9035 89.2655 14.6694 89.3135 14.353C89.3248 14.278 89.3331 14.2157 89.3382 14.1661C89.3601 13.9535 89.3711 13.7519 89.3711 13.5612C89.3711 12.5201 89.1408 11.5963 88.68 10.7898C88.2193 9.98323 87.5868 9.35268 86.7824 8.89809C85.978 8.44351 85.0492 8.21622 83.9962 8.21622C82.9139 8.21622 81.9413 8.45817 81.0784 8.94208C80.2155 9.426 79.5317 10.0895 79.0271 10.9327C78.5226 11.7759 78.2703 12.7327 78.2703 13.8032C78.2703 14.8737 78.5262 15.8342 79.0381 16.6847C79.55 17.5352 80.2557 18.1987 81.1552 18.6753C82.0547 19.1519 83.0821 19.3902 84.2375 19.3902C85.1297 19.3902 85.9487 19.2362 86.6946 18.9283C87.0741 18.7716 87.5346 18.4655 88.0759 18.0098C88.0899 17.9981 88.1034 17.9857 88.1163 17.9728C88.37 17.7198 88.3705 17.3091 88.1175 17.0555L87.1878 16.1234C86.9535 15.8884 86.5796 15.8682 86.3213 16.0765C86.0552 16.2911 85.8287 16.4389 85.6416 16.5197C85.2174 16.703 84.7421 16.7947 84.2156 16.7947C83.6452 16.7947 83.1516 16.6737 82.7347 16.4317C82.3179 16.1898 81.9961 15.8452 81.7694 15.3979Z" fill="#2E3A4B"/>
<defs>
<linearGradient id="paint0_linear_4214_53101" x1="19.5676" y1="0.000394589" x2="19.5676" y2="22.9194" gradientUnits="userSpaceOnUse">
<stop stop-color="#94EDFF"/>
<stop offset="1" stop-color="#005DFF"/>
</linearGradient>
</defs>
</svg>
