<svg width="93" height="40" viewBox="0 0 93 40" fill="none" xmlns="http://www.w3.org/2000/svg">
<g clip-path="url(#clip0_3788_59028)">
<mask id="mask0_3788_59028" style="mask-type:luminance" maskUnits="userSpaceOnUse" x="0" y="0" width="93" height="40">
<path d="M93 0H0V40H93V0Z" fill="white"/>
</mask>
<g mask="url(#mask0_3788_59028)">
<path d="M42.3767 15.3284C41.8456 15.6129 41.244 15.739 40.6434 15.6918H39.1045V11.8889H40.7102C41.305 11.8583 41.8967 11.9938 42.419 12.2802C42.9102 12.5967 43.2022 13.1452 43.1905 13.7295C43.2158 14.3677 42.9076 14.9732 42.3767 15.3284ZM43.3764 17.5764C45.0884 17.0856 46.2509 15.4979 46.2016 13.7177C46.2879 11.9979 45.2619 10.4166 43.6562 9.79473C42.6245 9.41217 41.5261 9.242 40.4271 9.29444H36.0757V22.8007H39.1045V18.1527H39.4121C40.0203 18.1435 40.6048 18.3885 41.0245 18.8288C42.025 19.996 42.8719 21.2866 43.5446 22.6689L43.6148 22.8033H47.127L46.903 22.4323C45.9022 20.6937 44.7201 19.066 43.3764 17.5764Z" fill="#2E3A4B" fill-opacity="0.7"/>
<path d="M57.6811 16.0569C57.6811 18.6716 56.3687 20.3618 54.2281 20.3618C52.074 20.3618 50.7311 18.6716 50.7311 16.0569C50.7311 13.4421 52.074 11.752 54.2281 11.752C56.3687 11.752 57.6811 13.4413 57.6811 16.0569ZM54.2281 9.05948C52.51 9.00057 50.8386 9.62506 49.5801 10.7962C48.2286 12.2047 47.5194 14.1091 47.6203 16.0585C47.6203 20.2527 50.2747 23.0728 54.2281 23.0728C58.1671 23.0728 60.7902 20.2536 60.7902 16.0585C60.7902 11.806 58.2279 9.05948 54.2281 9.05948Z" fill="#2E3A4B" fill-opacity="0.7"/>
<path d="M69.9946 9.29443L66.1579 15.2532L64.417 9.29443H61.2682L64.1179 18.1366L60.9521 22.8007H64.3384L73.4114 9.29443H69.9946Z" fill="#2E3A4B" fill-opacity="0.7"/>
<path d="M86.7287 20.2097V9.29443H83.6982V22.8007H91.2627L92.3461 20.2097H86.7287Z" fill="#2E3A4B" fill-opacity="0.7"/>
<path d="M74.954 16.9391L78.0225 12.259V16.9391H74.954ZM81.0488 9.29443H76.9586L67.7124 22.8007H71.1147L73.2638 19.4837H78.0225V22.8007H81.053L81.0488 9.29443Z" fill="#2E3A4B" fill-opacity="0.7"/>
<path d="M27.9343 32.2351C27.4033 32.5188 26.8021 32.6446 26.2019 32.5976H24.663V28.7947H26.2686C26.8633 28.7641 27.4548 28.8999 27.9766 29.1868C28.4676 29.5031 28.7597 30.0513 28.7481 30.6353C28.7734 31.2738 28.4652 31.8795 27.9343 32.2351ZM28.9341 34.4822C30.6461 33.992 31.8087 32.4045 31.7592 30.6243C31.8454 28.9044 30.8194 27.323 29.2138 26.7006C28.1822 26.3178 27.0838 26.1476 25.9847 26.2003H21.6333V39.7082H24.663V35.0602H24.9697C25.5783 35.0505 26.1632 35.2956 26.583 35.7363C27.5834 36.9035 28.43 38.194 29.1022 39.5764L29.1732 39.7108H32.6854L32.4606 39.3389C31.4596 37.6002 30.2775 35.9722 28.9341 34.4822Z" fill="#2E3A4B" fill-opacity="0.7"/>
<path d="M65.6902 32.2351C65.1591 32.5187 64.558 32.6445 63.9577 32.5976H62.4188V28.7947H64.0245C64.6189 28.7642 65.2101 28.9 65.7316 29.1868C66.2226 29.5031 66.5147 30.0513 66.5032 30.6353C66.5286 31.2736 66.2207 31.8793 65.6902 32.2351ZM66.6891 34.4822C68.4011 33.992 69.5637 32.4045 69.5142 30.6243C69.6006 28.9044 68.5746 27.3227 66.9688 26.7006C65.9375 26.3178 64.8394 26.1476 63.7405 26.2003H59.3892V39.7082H62.4188V35.0602H62.7256C63.3344 35.0504 63.9196 35.2955 64.3397 35.7363C65.3396 36.9038 66.1862 38.1943 66.8589 39.5764L66.9291 39.7108H70.4421L70.2182 39.3389C69.2163 37.6001 68.0334 35.9722 66.6891 34.4822Z" fill="#2E3A4B" fill-opacity="0.7"/>
<path d="M54.6675 32.9841C54.6675 35.5996 53.3534 37.289 51.2136 37.289C49.0595 37.289 47.7175 35.5988 47.7175 32.9841C47.7175 30.3694 49.0587 28.6792 51.2128 28.6792C53.3534 28.6792 54.6675 30.3694 54.6675 32.9841ZM51.2128 25.9867C49.4946 25.928 47.8232 26.5528 46.5648 27.7242C45.2141 29.1328 44.5054 31.0369 44.6067 32.9858C44.6067 37.1808 47.2611 40 51.2128 40C55.1644 40 57.7749 37.18 57.7749 32.9858C57.7749 28.7341 55.2152 25.9867 51.2128 25.9867Z" fill="#2E3A4B" fill-opacity="0.7"/>
<path d="M7.23991 33.8458L10.3059 29.1648V33.8458H7.23991ZM13.3356 26.2002H9.24447L0 39.7082H3.40065L5.54888 36.3895H10.3051V39.7082H13.3356V26.2002Z" fill="#2E3A4B" fill-opacity="0.7"/>
<path d="M15.8618 26.2002V39.7082H18.8923V26.2002H15.8618Z" fill="#2E3A4B" fill-opacity="0.7"/>
<path d="M39.1003 28.8048H43.935L45.2771 26.2002H36.0757V39.7217H39.1003V34.2539H42.8136V31.6696H39.1003V28.8048Z" fill="#2E3A4B" fill-opacity="0.7"/>
<path d="M78.7041 37.2865C77.7045 37.3064 76.7171 37.0643 75.8401 36.5842C74.6284 35.7648 73.9345 34.3705 74.0113 32.9098C73.9904 31.9148 74.3074 30.9421 74.9105 30.1505C75.774 29.1717 77.0423 28.648 78.3449 28.7325C79.3287 28.7311 80.3082 28.8618 81.2571 29.1212V26.3721C80.1899 26.0997 79.0923 25.964 77.9908 25.9682C76.0954 25.9258 74.2547 26.6048 72.8408 27.8679C71.5299 29.2221 70.8146 31.044 70.854 32.9284C70.7949 34.9838 71.6267 36.9646 73.1358 38.3615C74.6252 39.4801 76.455 40.0505 78.3162 39.9764C79.4166 39.9821 80.5123 39.8336 81.5715 39.5353V36.9079C80.6367 37.1605 79.6724 37.2878 78.7041 37.2865Z" fill="#2E3A4B" fill-opacity="0.7"/>
<path d="M86.722 37.1146V34.1348H90.3881V31.5522H86.722V28.8048H91.4596L92.4813 26.2002H83.6924V39.7217H91.9625V37.1146H86.722Z" fill="#2E3A4B" fill-opacity="0.7"/>
<path d="M14.5639 4.76329C16.3522 2.9851 18.7741 1.99101 21.296 2.00006C26.5228 2.03049 30.7385 6.28668 30.7187 11.5137C30.699 16.7413 26.4505 20.9658 21.2229 20.956C15.996 20.9462 11.7638 16.7067 11.7627 11.48C11.7678 8.95801 12.7756 6.54157 14.5639 4.76329Z" stroke="#2E3A4B" stroke-opacity="0.7" stroke-width="4"/>
<path d="M21.305 7.63623C23.4258 7.63623 25.1458 9.35609 25.146 11.4777C25.146 13.5997 23.4261 15.3197 21.3045 15.3198C19.1825 15.3198 17.4626 13.6 17.4624 11.4783C17.4618 9.35591 19.1826 7.6353 21.305 7.63623Z" fill="#2E3A4B" fill-opacity="0.7"/>
</g>
</g>
<defs>
<clipPath id="clip0_3788_59028">
<rect width="93" height="40" fill="white"/>
</clipPath>
</defs>
</svg>
