<svg width="40" height="40" viewBox="0 0 40 40" fill="none" xmlns="http://www.w3.org/2000/svg">
<path fill-rule="evenodd" clip-rule="evenodd" d="M40 20C40 31.0457 31.0457 40 20 40C8.95431 40 0 31.0457 0 20C0 8.9543 8.95431 0 20 0C31.0457 0 40 8.9543 40 20ZM20 3.33334C29.2047 3.33334 36.6667 10.7953 36.6667 20C36.6667 29.2047 29.2047 36.6667 20 36.6667C10.7953 36.6667 3.33333 29.2047 3.33333 20C3.33333 10.7953 10.7953 3.33334 20 3.33334ZM20.4905 27.1572C21.1401 27.8068 22.1932 27.8068 22.8428 27.1572L29.2929 20.7071C29.6834 20.3166 29.6834 19.6834 29.2929 19.2929L22.8428 12.8428C22.1932 12.1932 21.1401 12.1932 20.4905 12.8428C19.8419 13.4915 19.8408 14.5429 20.4883 15.1928L23.6167 18.3333H11.6667C10.7462 18.3333 10 19.0795 10 20C10 20.9205 10.7462 21.6667 11.6667 21.6667H23.6167L20.4883 24.8072C19.8408 25.4571 19.8419 26.5085 20.4905 27.1572Z" fill="white"/>
</svg>
