<svg width="40" height="40" viewBox="0 0 40 40" fill="none" xmlns="http://www.w3.org/2000/svg">
<path fill-rule="evenodd" clip-rule="evenodd" d="M0 20C0 31.0457 8.95431 40 20 40C31.0457 40 40 31.0457 40 20C40 8.9543 31.0457 0 20 0C8.95431 0 0 8.9543 0 20ZM20 3.33334C10.7953 3.33334 3.33334 10.7953 3.33334 20C3.33334 29.2047 10.7953 36.6667 20 36.6667C29.2047 36.6667 36.6667 29.2047 36.6667 20C36.6667 10.7953 29.2047 3.33334 20 3.33334ZM19.5095 27.1572C18.8599 27.8068 17.8068 27.8068 17.1572 27.1572L10.7071 20.7071C10.3166 20.3166 10.3166 19.6834 10.7071 19.2929L17.1572 12.8428C17.8068 12.1932 18.8599 12.1932 19.5095 12.8428C20.1581 13.4915 20.1592 14.5429 19.5117 15.1928L16.3833 18.3333H28.3333C29.2538 18.3333 30 19.0795 30 20C30 20.9205 29.2538 21.6667 28.3333 21.6667H16.3833L19.5117 24.8072C20.1592 25.4571 20.1581 26.5085 19.5095 27.1572Z" fill="white"/>
</svg>
