<svg width="24" height="24" viewBox="0 0 24 24" fill="none" xmlns="http://www.w3.org/2000/svg">
<path fill-rule="evenodd" clip-rule="evenodd" d="M11.6323 4.66663H18.7974C19.0937 4.66663 19.334 4.90688 19.334 5.20323V12.3683C19.334 12.6647 19.0937 12.9049 18.7974 12.9049H17.1929C16.9953 12.9049 16.8352 12.7448 16.8352 12.5472V8.41747C16.8352 7.72598 16.2746 7.16543 15.5831 7.16543H11.4534C11.2559 7.16543 11.0957 7.00527 11.0957 6.8077V5.20323C11.0957 4.90688 11.336 4.66663 11.6323 4.66663ZM15.5836 7.88086H8.41843C8.12209 7.88086 7.88184 8.12111 7.88184 8.41745V10.0219C7.88184 10.2195 8.04199 10.3797 8.23957 10.3797H12.3693C13.0608 10.3797 13.6213 10.9402 13.6213 11.6317V15.7614C13.6213 15.959 13.7815 16.1191 13.9791 16.1191H15.5836C15.8799 16.1191 16.1202 15.8789 16.1202 15.5826V8.41745C16.1202 8.12111 15.8799 7.88086 15.5836 7.88086ZM12.3687 11.095H5.20359C4.90725 11.095 4.66699 11.3352 4.66699 11.6315V18.7967C4.66699 19.093 4.90725 19.3333 5.20359 19.3333H12.3687C12.6651 19.3333 12.9053 19.093 12.9053 18.7967V11.6315C12.9053 11.3352 12.665 11.095 12.3687 11.095Z" fill="white"/>
</svg>
