<svg width="56" height="56" viewBox="0 0 56 56" fill="none" xmlns="http://www.w3.org/2000/svg">
<path fill-rule="evenodd" clip-rule="evenodd" d="M22.0387 4.66663C20.801 4.66663 19.8312 5.80719 19.8312 7.0282V9.09977C19.8312 9.68825 20.0282 10.2736 20.4596 10.715C20.8911 11.1563 21.4633 11.3578 22.0387 11.3578H24.6362L13.9584 24.6027H4.5408C3.12854 24.6027 2.33331 25.8259 2.33331 26.9642V29.1393C2.33331 29.8647 2.6828 30.4531 3.07631 30.832C3.45975 31.2012 4.01836 31.5009 4.64206 31.5009H14.1606L24.738 44.6421H22.1399C21.5646 44.6421 20.9923 44.8436 20.5609 45.2849C20.1295 45.7262 19.9324 46.3115 19.9324 46.9V48.9717C19.9324 50.1212 20.7932 51.1204 21.9433 51.3166L22.041 51.3333H33.6836C34.2589 51.3333 34.8312 51.1318 35.2627 50.6905C35.6942 50.2492 35.8912 49.6639 35.8912 49.0754V37.1638C35.8912 36.5753 35.6942 35.9899 35.2627 35.5486C34.8312 35.1073 34.2589 34.9059 33.6836 34.9059H31.5571C30.9818 34.9059 30.4096 35.1074 29.9782 35.5487C29.5468 35.99 29.3497 36.5753 29.3497 37.1638V39.527L23.2382 31.5009H23.5974L23.6242 31.5328H42.2251L40.4461 33.0271C40.0014 33.4005 39.6842 33.9277 39.6245 34.5488C39.5648 35.1699 39.7757 35.7502 40.1408 36.205L41.4904 37.8862C41.8555 38.341 42.3709 38.6655 42.9781 38.7265C43.5853 38.7875 44.1526 38.5718 44.5972 38.1983L52.8351 29.5217C53.2797 29.1483 53.597 28.6211 53.6566 28C53.7163 27.3789 53.5054 26.7986 53.1403 26.3438L45.6323 18.3196C44.8469 17.3412 43.3697 17.2983 42.4471 18.0731L40.8819 19.3877C40.4373 19.7612 40.12 20.2884 40.0604 20.9095C40.0007 21.5307 40.2117 22.1109 40.5767 22.5657L42.2251 24.6192L23.2058 24.6056L29.2484 16.585V18.9397C29.2484 19.5282 29.4454 20.1136 29.8768 20.5549C30.3083 20.9962 30.8805 21.1977 31.4558 21.1977H33.5825C34.1578 21.1977 34.73 20.9962 35.1615 20.5549C35.5929 20.1136 35.7899 19.5282 35.7899 18.9397V6.92463C35.7899 6.33613 35.5929 5.75077 35.1615 5.30946C34.73 4.86815 34.1578 4.66663 33.5825 4.66663H22.0387Z" fill="#2E3A4B" fill-opacity="0.7"/>
</svg>
